<svg height="512" viewBox="0 0 64 64" width="512" xmlns="http://www.w3.org/2000/svg"><g id="Store-Mobile-Smartpone-Shopping-Payment"><path d="m49 7v50a4 4 0 0 1 -4 4h-26a3.861 3.861 0 0 1 -1.28-.21 4 4 0 0 1 -2.72-3.79v-50a4 4 0 0 1 4-4h26a4 4 0 0 1 4 4z" fill="#5aaae7"/><path d="m42 31v2a2 2 0 0 1 -1 1.73v7.27a1 1 0 0 1 -1 1h-12a1 1 0 0 1 -1-1v-1h11a1 1 0 0 0 1-1v-7.27a2 2 0 0 0 1-1.73v-2l-1.5-2h.5z" fill="#3d9ae2"/><path d="m39 31v9a1 1 0 0 1 -1 1h-12a1 1 0 0 1 -1-1v-9z" fill="#00ccb3"/><g fill="#ff9811"><circle cx="59" cy="34" r="2"/><circle cx="56" cy="22" r="2"/><circle cx="56" cy="46" r="2"/><path d="m40 3v3a1 1 0 0 1 -1 1h-14a1 1 0 0 1 -1-1v-3z"/></g><path d="m37 25 3 4h-16l3-4z" fill="#ed1c24"/><path d="m30 37h4v4h-4z" fill="#e6e7e8"/><circle cx="8" cy="22" fill="#ff9811" r="2"/><circle cx="8" cy="46" fill="#ff9811" r="2"/><circle cx="5" cy="34" fill="#ff9811" r="2"/><path d="m49 34.69v22.31a4 4 0 0 1 -4 4h-26a3.861 3.861 0 0 1 -1.28-.21c9.37-5.28 22.04-13.94 31.28-26.1z" fill="#3d9ae2"/><path d="m40 29v2a2 2 0 0 1 -4 0 2 2 0 0 1 -4 0 2 2 0 0 1 -4 0 2 2 0 0 1 -4 0v-2z" fill="#ff5023"/><path d="m37.8 24.4a1 1 0 0 0 -.8-.4h-10a1 1 0 0 0 -.8.4l-3 4a1 1 0 0 0 -.2.6v2a2.985 2.985 0 0 0 1 2.22v6.78a2 2 0 0 0 2 2h12a2 2 0 0 0 2-2v-6.78a2.985 2.985 0 0 0 1-2.22v-2a1 1 0 0 0 -.2-.6zm-10.3 1.6h9l1.5 2h-12zm10.5 6a1 1 0 0 1 -1-1h-2a1 1 0 0 1 -2 0h-2a1 1 0 0 1 -2 0h-2a1 1 0 0 1 -2 0v-1h14v1a1 1 0 0 1 -1 1zm-5 8h-2v-2h2zm5 0h-3v-3a1 1 0 0 0 -1-1h-4a1 1 0 0 0 -1 1v3h-3v-6a2.981 2.981 0 0 0 2-.78 2.954 2.954 0 0 0 4 0 2.954 2.954 0 0 0 4 0 2.981 2.981 0 0 0 2 .78z"/><path d="m53.707 42.293-3-3a1 1 0 0 0 -.707-.293v-4h4v-2h-4v-4a1 1 0 0 0 .707-.293l3-3-1.414-1.414-2.293 2.293v-19.586a5.006 5.006 0 0 0 -5-5h-26a5.006 5.006 0 0 0 -5 5v19.586l-2.293-2.293-1.414 1.414 3 3a1 1 0 0 0 .707.293v4h-4v2h4v4a1 1 0 0 0 -.707.293l-3 3 1.414 1.414 2.293-2.293v15.586a5.006 5.006 0 0 0 5 5h26a5.006 5.006 0 0 0 5-5v-15.586l2.293 2.293zm-28.707-38.293h14v2h-14zm20 56h-26a3 3 0 0 1 -3-3v-16h5v-2h-5v-4h5v-2h-5v-4h5v-2h-5v-20a3 3 0 0 1 3-3h4v2a2 2 0 0 0 2 2h14a2 2 0 0 0 2-2v-2h4a3 3 0 0 1 3 3v20h-5v2h5v4h-5v2h5v4h-5v2h5v16a3 3 0 0 1 -3 3z"/><path d="m56 25a3 3 0 1 0 -3-3 3 3 0 0 0 3 3zm0-4a1 1 0 1 1 -1 1 1 1 0 0 1 1-1z"/><path d="m59 31a3 3 0 1 0 3 3 3 3 0 0 0 -3-3zm0 4a1 1 0 1 1 1-1 1 1 0 0 1 -1 1z"/><path d="m56 43a3 3 0 1 0 3 3 3 3 0 0 0 -3-3zm0 4a1 1 0 1 1 1-1 1 1 0 0 1 -1 1z"/><path d="m8 25a3 3 0 1 0 -3-3 3 3 0 0 0 3 3zm0-4a1 1 0 1 1 -1 1 1 1 0 0 1 1-1z"/><path d="m8 34a3 3 0 1 0 -3 3 3 3 0 0 0 3-3zm-4 0a1 1 0 1 1 1 1 1 1 0 0 1 -1-1z"/><path d="m8 43a3 3 0 1 0 3 3 3 3 0 0 0 -3-3zm0 4a1 1 0 1 1 1-1 1 1 0 0 1 -1 1z"/><path d="m25 46h2v2h-2z"/><path d="m29 46h10v2h-10z"/><path d="m25 50h14v2h-14z"/><path d="m25 14h2v2h-2z"/><path d="m29 14h2v2h-2z"/><path d="m33 14h6v2h-6z"/><path d="m25 18h14v2h-14z"/></g></svg>